<svg id="Layer_2" xmlns="http://www.w3.org/2000/svg" viewBox="0 0 801.65 300.69"><g id="Layer_1-2"><path d="M35.83,242.84c-6.19,0-12.18-3.08-18.29-9.42-7.3-7.57-10.29-57.03-10.6-62.64-.02-.33.04-.66.18-.95l9.5-20.5c.11-.24.27-.45.46-.63l22-20.25c.06-.05.12-.1.18-.15l27.89-20.25c.34-.25.76-.38,1.17-.38.14,0,.28.02.42.05.56.12,1.04.47,1.32.97,6.16,10.88,24.43,39.1,34.86,39.1h0c.76,0,1.43-.16,2.06-.49.86-.73,4.29-5.07,7.92-9.66,11.93-15.08,31.9-40.33,43.27-45.4,3.64-1.62,6.86-2.45,9.58-2.45,5.26,0,7.75,2.94,8.91,5.41,2.27,4.84,1.18,11.85-.63,14.03-13.33,16.03-24.4,33.78-32.89,52.77-21.49,48.02-46.32,61.42-59.21,65.13-3.56,1.03-7.06,1.78-10.44,2.5-8.58,1.84-16.69,3.58-25.99,9.5-3.86,2.46-7.78,3.7-11.65,3.7h0Z" fill="#c45182" stroke-width="0"/><path d="M167.74,91.79c10.44,0,8.6,13.92,6.74,16.16-18.88,22.7-28.99,43.86-33.18,53.23-16.61,37.11-37.89,58.25-57.94,64.02-12.27,3.53-23.52,3.69-36.95,12.24-3.76,2.39-7.29,3.39-10.58,3.39-6.57,0-12.19-3.98-16.85-8.81-7-7.25-10.04-61.37-10.04-61.37l9.5-20.5,22-20.25,27.89-20.25s22.72,40.12,36.61,40.12c1.1,0,2.14-.25,3.11-.79,2.7-1.5,35.74-48.15,50.94-54.93,3.6-1.61,6.48-2.28,8.77-2.28M167.74,87.79c-3.04,0-6.45.86-10.4,2.62-10.9,4.87-28.44,26.29-44.02,45.99-3.16,3.99-6.42,8.12-7.5,9.23-.27.11-.57.16-.9.16-1.56,0-7.63-1.33-20.25-18.38-7.19-9.72-12.82-19.61-12.87-19.71-.56-.99-1.52-1.7-2.63-1.94-.28-.06-.57-.09-.85-.09-.84,0-1.66.26-2.35.76l-27.89,20.25c-.13.09-.25.19-.36.29l-22,20.25c-.39.36-.7.78-.92,1.26l-9.5,20.5c-.28.6-.4,1.25-.36,1.91,0,.14.79,13.81,2.42,28.19,3.04,26.79,6.27,33.16,8.74,35.73,6.51,6.75,12.97,10.03,19.73,10.03,4.26,0,8.54-1.35,12.73-4.02,9-5.73,16.94-7.43,25.34-9.23,3.42-.73,6.95-1.49,10.58-2.54,22.83-6.57,44.31-30.1,60.48-66.23,8.42-18.82,19.39-36.42,32.6-52.3,2.46-2.95,3.41-10.82.91-16.16-1.98-4.23-5.79-6.56-10.72-6.56h0Z" fill="#fff" stroke-width="0"/><path d="M6.67,200.29c-2.27,0-4.04-1.46-4.52-3.72-.99-4.71,3.75-75.09,4.32-79.15.59-4.22,5.25-7.11,13.85-8.58,5.92-1.01,11.71-1.04,12.35-1.04.58,0,1.14.25,1.52.69.38.44.56,1.02.48,1.59l-1.75,12.26c-.22,2.05-5.71,51.91-12.04,63.93-4.69,8.9-9.87,14.01-14.21,14.01h0Z" fill="#c45182" stroke-width="0"/><path d="M32.67,109.81s.02,0,.02,0l-1.75,12.26s-5.6,51.46-11.83,63.28c-5.06,9.6-9.68,12.94-12.44,12.94-1.38,0-2.29-.83-2.56-2.13-.89-4.2,3.64-73.44,4.34-78.46,1.09-7.83,23.4-7.9,24.22-7.9M32.67,105.81c-.66,0-6.6.03-12.69,1.07-9.56,1.64-14.78,5.1-15.5,10.28-.38,2.71-1.68,21.33-2.79,39.85C-.51,193.65,0,196.08.19,196.99c.67,3.17,3.27,5.3,6.48,5.3,5.18,0,10.86-5.36,15.98-15.08,2.83-5.37,5.67-17.59,8.67-37.34,2.08-13.72,3.48-26.27,3.59-27.31l1.74-12.2c.16-1.15-.18-2.31-.93-3.18-.76-.88-1.86-1.38-3.01-1.38,0,0-.03,0-.03,0h0Z" fill="#fff" stroke-width="0"/><path d="M34.92,189.05c-.67,0-1.33-.11-1.96-.32-1.88-.63-5.8-1.94-7.22-42.36-.68-19.31-.41-40.31.27-43.32,2.46-10.85,24.57-10.98,24.79-10.98,1.88,0,2.83.69,2.83,2.05,0,.06,0,.11,0,.17-.02.23-1.88,22.82-1.55,38.14.82,38.42-8.3,50.79-11.12,53.67-1.9,1.94-3.98,2.96-6.03,2.96h0Z" fill="#c45182" stroke-width="0"/><path d="M50.8,94.07c.53,0,.83.02.83.05,0,0-1.89,22.75-1.56,38.35.8,37.34-8.17,54.58-15.15,54.58-.45,0-.9-.07-1.33-.22-6.9-2.3-6.84-78.01-5.63-83.35,1.87-8.22,18.86-9.42,22.84-9.42M50.8,90.07c-2.46,0-8.02.37-13.24,1.76-7.81,2.08-12.35,5.71-13.5,10.77-.81,3.58-.97,25.29-.32,43.84.39,11.22,1.06,20.78,1.93,27.65,1.39,11.03,3.13,15.36,6.66,16.54.84.28,1.71.42,2.6.42,1.81,0,4.58-.62,7.46-3.56,7.88-8.06,12.25-28.66,11.69-55.11-.33-15.21,1.53-37.71,1.55-37.93,0-.11.01-.22.01-.33,0-.68-.23-4.05-4.83-4.05h0Z" fill="#fff" stroke-width="0"/><path d="M77.57,120.83s-5.52,50.25-16.08,56.83c-9.58,5.97-10.82-23.97-10.82-23.97,0,0-3.26-61.05,1.97-68.46,5.23-7.41,24.93,5.12,24.93,5.12" fill="#c45182" stroke="#fff" stroke-linecap="round" stroke-linejoin="round" stroke-width="4"/><path d="M105.84,150.77c2.72.47,10.45-142.95-3.74-148.47-20.22-7.85-31.92,136.96-25.43,145.8" fill="#c45182" stroke="#fff" stroke-linecap="round" stroke-linejoin="round" stroke-width="4"/><path d="M90.21,170.19c5.62-8.86,8.98-13.2,16.47-22.06" fill="#c45182" stroke="#fff" stroke-linecap="round" stroke-linejoin="round" stroke-width="4"/><path d="M64.64,279.48c-5.71,0-10.75-1.15-15.12-3.46-4.37-2.3-7.81-5.62-10.32-9.96-2.51-4.33-3.77-9.49-3.77-15.48v-44.57h17.13v45.19c0,2.48.48,4.73,1.44,6.76.96,2.03,2.36,3.63,4.18,4.8,1.82,1.17,3.94,1.75,6.35,1.75s4.63-.58,6.45-1.75c1.82-1.17,3.21-2.77,4.18-4.8.96-2.03,1.44-4.28,1.44-6.76v-45.19h17.13v45.19c0,2.48.48,4.73,1.44,6.76.96,2.03,2.36,3.63,4.18,4.8,1.82,1.17,3.97,1.75,6.45,1.75s4.63-.58,6.45-1.75c1.82-1.17,3.21-2.77,4.18-4.8.96-2.03,1.44-4.28,1.44-6.76v-45.19h17.02v44.57c0,5.98-1.24,11.14-3.71,15.48-2.48,4.33-5.9,7.65-10.27,9.96-4.37,2.3-9.37,3.46-15.01,3.46-2.89,0-5.59-.33-8.1-.98-2.51-.65-4.82-1.63-6.91-2.94-2.1-1.31-4.01-2.89-5.73-4.75-1.65,1.79-3.54,3.34-5.67,4.64-2.13,1.31-4.45,2.31-6.96,2.99-2.51.69-5.14,1.03-7.89,1.03Z" fill="#0c0709" stroke="#fff" stroke-miterlimit="10" stroke-width="3"/><path d="M174.1,278.24c-5.98,0-11.25-1.12-15.79-3.35-4.54-2.23-8.08-5.35-10.63-9.34-2.55-3.99-3.82-8.56-3.82-13.72,0-5.78,1.22-10.75,3.66-14.91,2.44-4.16,5.67-7.34,9.7-9.54,4.02-2.2,8.51-3.3,13.46-3.3,5.57,0,10.21,1.17,13.93,3.51,3.71,2.34,6.53,5.54,8.46,9.6,1.92,4.06,2.89,8.63,2.89,13.72,0,.96-.05,2.03-.16,3.2-.1,1.17-.26,2.1-.46,2.79h-34.67c.55,1.86,1.38,3.39,2.48,4.59,1.1,1.2,2.56,2.1,4.38,2.68,1.82.59,3.87.88,6.14.88h15.99v13.21h-15.58ZM160.38,246.88h20.12c-.14-1.1-.36-2.17-.67-3.2-.31-1.03-.72-1.94-1.24-2.73-.52-.79-1.17-1.5-1.96-2.12-.79-.62-1.7-1.08-2.73-1.39-1.03-.31-2.13-.47-3.3-.47-1.58,0-2.99.29-4.23.88-1.24.59-2.27,1.33-3.1,2.22-.83.89-1.46,1.94-1.91,3.15-.45,1.2-.77,2.42-.98,3.66Z" fill="#0c0709" stroke="#fff" stroke-miterlimit="10" stroke-width="3"/><path d="M205.26,278.24v-75.32h15.89v75.32h-15.89Z" fill="#0c0709" stroke="#fff" stroke-miterlimit="10" stroke-width="3"/><path d="M233.12,278.24v-75.32h15.89v75.32h-15.89Z" fill="#0c0709" stroke="#fff" stroke-miterlimit="10" stroke-width="3"/><path d="M259.53,294.44l5.47-15.68c-2.06-.83-3.61-2.12-4.64-3.87-1.03-1.75-1.55-3.56-1.55-5.42,0-2.82.98-5.17,2.94-7.07,1.96-1.89,4.28-2.84,6.96-2.84,3.03,0,5.47,1.03,7.33,3.1s2.79,4.51,2.79,7.33c0,1.86-.17,3.61-.52,5.26-.35,1.65-.93,3.47-1.75,5.47l-4.75,13.72h-12.28Z" fill="#0c0709" stroke="#fff" stroke-miterlimit="10" stroke-width="3"/><path d="M306.68,278.24l23.32-63.76c1.24-3.23,3.2-5.66,5.88-7.27,2.68-1.62,5.71-2.42,9.08-2.42s6.41.77,9.13,2.32c2.72,1.55,4.66,3.97,5.83,7.27l23.42,63.86h-18.67l-4.54-13.93h-30.64l-4.75,13.93h-18.06ZM334.02,250.08h21.67l-9.18-28.99c-.14-.34-.33-.6-.57-.77-.24-.17-.53-.26-.88-.26s-.64.1-.88.31c-.24.21-.4.45-.47.72l-9.7,28.99Z" fill="#0c0709" stroke="#fff" stroke-miterlimit="10" stroke-width="3"/><path d="M415.32,278.24c-5.51,0-10.41-1.15-14.7-3.46-4.3-2.3-7.69-5.43-10.16-9.39-2.48-3.95-3.71-8.48-3.71-13.57s1.24-9.61,3.71-13.57c2.47-3.95,5.86-7.1,10.16-9.44,4.3-2.34,9.2-3.51,14.7-3.51h7.94v13.52h-7.33c-2.68,0-4.99.57-6.91,1.7s-3.42,2.68-4.49,4.64c-1.07,1.96-1.6,4.18-1.6,6.66s.53,4.71,1.6,6.71c1.07,2,2.56,3.54,4.49,4.64s4.23,1.65,6.91,1.65h7.33v13.41h-7.94Z" fill="#0c0709" stroke="#fff" stroke-miterlimit="10" stroke-width="3"/><path d="M427.29,238.42v-13.1h39.31v13.1h-39.31ZM451.53,278.24c-4.89,0-8.7-1.39-11.45-4.18-2.75-2.79-4.13-6.55-4.13-11.3v-50.35h16.09v49.42c0,.83.29,1.53.88,2.11.58.59,1.29.88,2.11.88h11.56v13.41h-15.06Z" fill="#0c0709" stroke="#fff" stroke-miterlimit="10" stroke-width="3"/><path d="M502.81,279.48c-5.44,0-10.13-1.07-14.08-3.2-3.96-2.13-7-4.97-9.13-8.51-2.13-3.54-3.2-7.55-3.2-12.02v-30.44h15.99v30.02c0,1.86.45,3.56,1.34,5.11s2.13,2.79,3.71,3.71c1.58.93,3.33,1.39,5.26,1.39s3.66-.46,5.21-1.39c1.55-.93,2.77-2.17,3.66-3.71s1.34-3.25,1.34-5.11v-30.02h16.1v30.44c0,4.47-1.05,8.48-3.15,12.02-2.1,3.54-5.11,6.38-9.03,8.51s-8.6,3.2-14.03,3.2Z" fill="#0c0709" stroke="#fff" stroke-miterlimit="10" stroke-width="3"/><path d="M562.13,279.48c-4.75,0-8.89-1.19-12.43-3.56-3.54-2.37-6.33-5.64-8.36-9.8-2.03-4.16-3.04-8.79-3.04-13.88,0-5.36,1.19-10.16,3.56-14.39,2.37-4.23,5.71-7.58,10.01-10.06,4.3-2.48,9.4-3.71,15.32-3.71s10.85,1.24,15.01,3.71c4.16,2.48,7.36,5.81,9.6,10.01,2.23,4.2,3.35,8.91,3.35,14.13v26.31h-15.68v-8.46h-.31c-1.03,1.86-2.32,3.53-3.87,5-1.55,1.48-3.39,2.63-5.52,3.46s-4.68,1.24-7.63,1.24ZM566.88,265.65c2.48,0,4.59-.6,6.35-1.81,1.75-1.2,3.13-2.87,4.13-5,1-2.13,1.5-4.5,1.5-7.12s-.48-4.85-1.44-6.91c-.96-2.06-2.36-3.7-4.18-4.9-1.82-1.2-3.94-1.81-6.35-1.81s-4.64.62-6.5,1.86c-1.86,1.24-3.27,2.87-4.23,4.9-.96,2.03-1.44,4.32-1.44,6.86s.48,4.99,1.44,7.12c.96,2.13,2.36,3.8,4.18,5,1.82,1.2,4.01,1.81,6.55,1.81Z" fill="#0c0709" stroke="#fff" stroke-miterlimit="10" stroke-width="3"/><path d="M607.01,278.24v-75.32h15.89v75.32h-15.89Z" fill="#0c0709" stroke="#fff" stroke-miterlimit="10" stroke-width="3"/><path d="M634.87,278.24v-75.32h15.89v75.32h-15.89Z" fill="#0c0709" stroke="#fff" stroke-miterlimit="10" stroke-width="3"/><path d="M681.08,299.19v-20.63c-3.92-.89-7.24-2.44-9.96-4.64s-4.8-4.87-6.24-8c-1.44-3.13-2.17-6.52-2.17-10.16v-30.44h15.99v30.02c0,1.79.45,3.47,1.34,5.05.89,1.58,2.11,2.84,3.66,3.77,1.55.93,3.32,1.39,5.31,1.39s3.66-.48,5.21-1.44c1.55-.96,2.77-2.22,3.66-3.77.89-1.55,1.34-3.21,1.34-5v-30.02h15.99v30.44c0,3.58-.72,6.93-2.17,10.06-1.44,3.13-3.51,5.8-6.19,8-2.68,2.2-5.95,3.75-9.8,4.64v20.74h-15.99Z" fill="#0c0709" stroke="#fff" stroke-miterlimit="10" stroke-width="3"/><path d="M735.05,279.48c-2.75,0-5.11-.98-7.07-2.94s-2.94-4.28-2.94-6.96.98-5.11,2.94-7.07,4.31-2.94,7.07-2.94,5.02.98,7.02,2.94c1.99,1.96,2.99,4.32,2.99,7.07,0,1.79-.45,3.44-1.34,4.95-.89,1.51-2.1,2.72-3.61,3.61-1.51.89-3.2,1.34-5.05,1.34Z" fill="#0c0709" stroke="#fff" stroke-miterlimit="10" stroke-width="3"/><path d="M762.59,279.48c-2.75,0-5.11-.98-7.07-2.94s-2.94-4.28-2.94-6.96.98-5.11,2.94-7.07,4.31-2.94,7.07-2.94,5.02.98,7.02,2.94c1.99,1.96,2.99,4.32,2.99,7.07,0,1.79-.45,3.44-1.34,4.95-.89,1.51-2.1,2.72-3.61,3.61-1.51.89-3.2,1.34-5.05,1.34Z" fill="#0c0709" stroke="#fff" stroke-miterlimit="10" stroke-width="3"/><path d="M790.14,279.48c-2.75,0-5.11-.98-7.07-2.94s-2.94-4.28-2.94-6.96.98-5.11,2.94-7.07,4.31-2.94,7.07-2.94,5.02.98,7.02,2.94c1.99,1.96,2.99,4.32,2.99,7.07,0,1.79-.45,3.44-1.34,4.95-.89,1.51-2.1,2.72-3.61,3.61-1.51.89-3.2,1.34-5.05,1.34Z" fill="#0c0709" stroke="#fff" stroke-miterlimit="10" stroke-width="3"/></g></svg>